# xmcd CD database file
#
# Track frame offsets:
#	150
#	26924
#	41642
#	58186
#	68686
#	88569
#	103477
#	122599
#	137869
#
# Disc length: 2080 seconds
#
# Revision: 0
# Processed by: cddbd v1.5.1PL2 Copyright (c) Steve Scherf et al.
# Submitted via: CDex 1.51
#
DISCID=83081e09
DTITLE=TOKYO COUNTERPOINT - OVAL
DYEAR=2006
DGENRE=Club
TTITLE0=To The Sky
TTITLE1=Twist Of Fate
TTITLE2=Grandism
TTITLE3=Liberty
TTITLE4=Be Full Of A Joy
TTITLE5=Telephone
TTITLE6=Skycraper
TTITLE7=Perfect Love
TTITLE8=Water Gun Spy Game
EXTD=YEAR: 2006
EXTT0=
EXTT1=
EXTT2=
EXTT3=
EXTT4=
EXTT5=
EXTT6=
EXTT7=
EXTT8=
PLAYORDER=
